# File created by Blade
# Date/Time:  Thu Jan 22 19:49:01 2015
# Frame Rate: 120.000 fps
#------------------------------------------------------
:FULLY-SPECIFIED
:DEGREES
1806
root -2.504123 3.320403 -10.756570 -26.068659 6.281180 -0.134652
RightUpLeg -62.425935 -10.757754 4.260538
RightLeg 4.573807 -0.000000 -0.000000
RightFoot 22.936502 -3.364856 10.323222
RightToeBase -14.097485 -0.000000 0.000000
LeftUpLeg -88.063193 -35.040629 -47.742730
LeftLeg 118.829498 -0.000000 -0.000000
LeftFoot 7.338457 13.678207 -6.815608
LeftToeBase -15.445604 -0.000000 0.000000
Spine 45.115445 48.136101 25.513929
RightShoulder 6.770879 12.383089 -20.266865
RightArm 83.761194 -45.260315 11.475538
RightForeArm -6.382965 -0.000000 67.380462
RightHand 13.393993 -0.000000 44.995924
RightHandThumb1 -24.326973 -0.000000 -32.862282
LeftShoulder -20.542807 0.048593 18.286317
LeftArm 11.045757 37.163491 -90.270640
LeftForeArm -4.394230 -0.000000 1.105588
LeftHand -18.772331 -0.000000 56.132430
LeftHandThumb1 -26.253704 0.000000 33.147579
Head -61.003582 63.431615 -56.610852
1807
root -2.481703 3.324179 -10.758828 -26.124765 6.354693 -0.024726
RightUpLeg -62.395506 -10.835063 4.111371
RightLeg 4.629884 -0.000000 -0.000000
RightFoot 22.903708 -3.282905 10.405383
RightToeBase -14.059594 -0.000000 0.000000
LeftUpLeg -87.875865 -34.926273 -48.003157
LeftLeg 118.733957 -0.000000 -0.000000
LeftFoot 7.408793 13.687496 -6.683562
LeftToeBase -15.461531 -0.000000 0.000000
Spine 45.242691 48.048391 25.489330
RightShoulder 6.767863 12.397624 -20.299193
RightArm 83.782523 -45.268339 11.437826
RightForeArm -6.352854 -0.000000 67.367036
RightHand 13.392627 -0.000000 44.989371
RightHandThumb1 -24.326973 -0.000000 -32.862282
LeftShoulder -20.547995 0.073379 18.216278
LeftArm 11.072382 37.151232 -90.250302
LeftForeArm -4.376266 -0.000000 1.099954
LeftHand -18.726556 -0.000000 56.171728
LeftHandThumb1 -26.253704 0.000000 33.147579
Head -60.965248 63.411110 -56.654357
1808
root -2.476076 3.323718 -10.759828 -26.118744 6.375886 -0.011188
RightUpLeg -62.408434 -10.858100 4.083093
RightLeg 4.640770 -0.000000 -0.000000
RightFoot 22.898570 -3.260181 10.422390
RightToeBase -14.086248 -0.000000 0.000000
LeftUpLeg -87.835299 -34.891712 -48.073362
LeftLeg 118.710566 -0.000000 -0.000000
LeftFoot 7.424581 13.680830 -6.640150
LeftToeBase -15.379877 -0.000000 0.000000
Spine 45.222627 48.012023 25.433805
RightShoulder 6.778993 12.377866 -20.300163
RightArm 83.797690 -45.236917 11.427687
RightForeArm -6.355066 0.000000 67.338182
RightHand 13.430722 -0.000000 44.965054
RightHandThumb1 -24.326973 -0.000000 -32.862282
LeftShoulder -20.567614 0.071069 18.215437
LeftArm 11.048020 37.138531 -90.270100
LeftForeArm -4.384924 -0.000000 1.094805
LeftHand -18.734162 -0.000000 56.162152
LeftHandThumb1 -26.253704 0.000000 33.147579
Head -60.966230 63.413125 -56.656162
1809
root -2.474652 3.323719 -10.759846 -26.119906 6.372958 -0.011151
RightUpLeg -62.400619 -10.845062 4.063838
RightLeg 4.635780 -0.000000 -0.000000
RightFoot 22.894413 -3.273118 10.414200
RightToeBase -14.036095 -0.000000 0.000000
LeftUpLeg -87.831232 -34.883311 -48.080856
LeftLeg 118.711988 -0.000000 -0.000000
LeftFoot 7.419512 13.678182 -6.640810
LeftToeBase -15.359570 -0.000000 0.000000
Spine 45.239459 48.005568 25.440763
RightShoulder 6.790100 12.357402 -20.308354
RightArm 83.769494 -45.217102 11.461863
RightForeArm -6.341127 -0.000000 67.300970
RightHand 13.480521 -0.000000 45.002476
RightHandThumb1 -24.326973 -0.000000 -32.862282
LeftShoulder -20.557595 0.084469 18.204813
LeftArm 11.056656 37.133612 -90.264534
LeftForeArm -4.408064 -0.000000 1.106934
LeftHand -18.777479 -0.000000 56.168307
LeftHandThumb1 -26.253704 0.000000 33.147579
Head -60.915534 63.416529 -56.623002
1810
root -2.473698 3.325110 -10.759235 -26.130853 6.366907 -0.007779
RightUpLeg -62.386862 -10.840153 4.060096
RightLeg 4.633872 -0.000000 -0.000000
RightFoot 22.900497 -3.270277 10.409394
RightToeBase -14.122826 -0.000000 0.000000
LeftUpLeg -87.828892 -34.885132 -48.071659
LeftLeg 118.713646 -0.000000 -0.000000
LeftFoot 7.411567 13.684890 -6.673386
LeftToeBase -15.378432 -0.000000 0.000000
Spine 45.276458 47.998305 25.451977
RightShoulder 6.790678 12.375936 -20.304915
RightArm 83.757877 -45.223216 11.472750
RightForeArm -6.343701 -0.000000 67.263450
RightHand 13.518634 -0.000000 44.977341
RightHandThumb1 -24.326973 -0.000000 -32.862282
LeftShoulder -20.559453 0.082935 18.191995
LeftArm 11.055928 37.128582 -90.259078
LeftForeArm -4.390228 0.000000 1.111441
LeftHand -18.801405 -0.000000 56.195576
LeftHandThumb1 -26.253704 0.000000 33.147579
Head -60.886698 63.404915 -56.599018
1811
root -2.472320 3.324546 -10.758708 -26.128754 6.362490 -0.006728
RightUpLeg -62.390964 -10.838557 4.067175
RightLeg 4.632274 -0.000000 -0.000000
RightFoot 22.897190 -3.286527 10.423685
RightToeBase -14.088511 -0.000000 0.000000
LeftUpLeg -87.830124 -34.878482 -48.078224
LeftLeg 118.712148 -0.000000 -0.000000
LeftFoot 7.396575 13.688675 -6.691440
LeftToeBase -15.287972 -0.000000 0.000000
Spine 45.299080 48.003418 25.444308
RightShoulder 6.765240 12.410231 -20.302057
RightArm 83.754301 -45.240826 11.469898
RightForeArm -6.314511 -0.000000 67.257406
RightHand 13.522537 0.000000 44.933315
RightHandThumb1 -24.326973 -0.000000 -32.862282
LeftShoulder -20.580683 0.068571 18.199849
LeftArm 11.058301 37.132898 -90.264437
LeftForeArm -4.379144 0.000000 1.103329
LeftHand -18.826094 -0.000000 56.206820
LeftHandThumb1 -26.253704 0.000000 33.147579
Head -60.942105 63.393733 -56.632893
